<svg xmlns="http://www.w3.org/2000/svg" width="219" height="39" viewBox="0 0 219 39"><g fill="none"><path fill="#FFF" fill-opacity=".635" d="M77.25 25.134l2.882 7.46 2.875-7.46h2.243v9.732h-1.729v-3.208l.172-4.292-2.95 7.5H79.5l-2.944-7.493.172 4.285v3.208H75v-9.732h2.25zm20.953 5.12c0 .954-.169 1.79-.507 2.51-.339.72-.822 1.272-1.451 1.658-.63.385-1.353.578-2.172.578-.81 0-1.531-.193-2.165-.578-.633-.386-1.122-.935-1.468-1.648-.345-.713-.52-1.535-.525-2.467v-.548c0-.949.173-1.787.518-2.513.346-.726.833-1.282 1.462-1.668.629-.385 1.35-.578 2.164-.578.815 0 1.536.19 2.165.572.629.38 1.115.929 1.458 1.644.343.715.517 1.547.521 2.497v.541zm-1.735-.508c0-1.078-.21-1.905-.628-2.48-.419-.575-1.012-.862-1.78-.862-.75 0-1.337.286-1.76.859-.424.572-.64 1.382-.649 2.43v.561c0 1.07.214 1.896.642 2.48.427.584 1.02.876 1.78.876.769 0 1.36-.286 1.774-.856.414-.57.62-1.404.62-2.5v-.508h.001zm9.762 3.001l2.539-7.613h1.907l-3.595 9.732h-1.68l-3.582-9.732h1.9l2.511 7.613zm10.333 2.12h-1.73v-9.733h1.73v9.733zm12.987 0h-1.736l-4.453-6.906v6.905h-1.735v-9.732h1.735l4.467 6.932v-6.932h1.722v9.733zm12.637-1.264c-.36.459-.862.807-1.502 1.043-.64.236-1.368.354-2.182.354-.837 0-1.578-.185-2.223-.555a3.734 3.734 0 0 1-1.492-1.587c-.35-.689-.532-1.492-.546-2.41v-.762c0-1.47.362-2.62 1.084-3.446.723-.827 1.732-1.24 3.026-1.24 1.112 0 1.994.267 2.649.802.654.535 1.047 1.306 1.18 2.313h-1.702c-.192-1.172-.89-1.758-2.093-1.758-.777 0-1.368.273-1.773.819-.405.546-.614 1.347-.628 2.403v.749c0 1.051.228 1.868.683 2.45.455.581 1.087.872 1.897.872.887 0 1.518-.196 1.894-.589v-1.905H138.4v-1.283h3.787v3.73zm18.888-1.905c-.1 1.038-.494 1.848-1.18 2.43-.686.581-1.599.872-2.738.872-.796 0-1.497-.184-2.103-.551a3.65 3.65 0 0 1-1.403-1.568c-.33-.677-.5-1.464-.514-2.36v-.909c0-.918.167-1.727.5-2.426.334-.7.814-1.239 1.438-1.618S156.42 25 157.24 25c1.102 0 1.99.292 2.662.876.672.583 1.063 1.408 1.173 2.473h-1.73c-.081-.7-.29-1.204-.627-1.514-.336-.31-.829-.465-1.478-.465-.755 0-1.335.269-1.74.806-.404.537-.611 1.324-.62 2.363v.862c0 1.052.193 1.854.58 2.406.386.553.952.83 1.697.83.682 0 1.194-.15 1.537-.448.343-.3.56-.796.652-1.491h1.729zm10.318-1.177h-4.103v2.995h4.796v1.35h-6.531v-9.732h6.483v1.363h-4.748v2.687h4.103v1.337zm12.96 4.345h-1.736l-4.452-6.905v6.905h-1.736v-9.732h1.736l4.466 6.932v-6.932h1.722v9.732zm12-8.369h-3.115v8.37h-1.722v-8.37h-3.088v-1.363h7.925v1.363zm10.078 4.024h-4.103v2.995h4.796v1.35h-6.532v-9.732h6.484v1.363h-4.748v2.687h4.103v1.337zm8.706.595h-1.935v3.75h-1.735v-9.732h3.512c1.153 0 2.043.251 2.67.755.626.504.94 1.232.94 2.186 0 .65-.162 1.195-.484 1.634-.323.44-.772.777-1.349 1.013L219 34.779v.087h-1.86l-2.003-3.75zm-1.935-1.357h1.784c.586 0 1.043-.143 1.373-.43.329-.288.494-.681.494-1.18 0-.522-.153-.925-.457-1.21-.304-.286-.758-.433-1.362-.442h-1.832v3.262z"/><path fill="#FFF" d="M78.975 17.865c-1.348 0-2.347-.309-2.998-.926-.651-.617-.977-1.626-.977-3.025V1.158h3.362v12.214c0 .978.5 1.467 1.499 1.467h5.314v3.026h-6.2zM93.534 18c-1.65 0-2.968-.218-3.952-.655-.985-.436-1.726-1.264-2.226-2.483-.5-1.22-.75-2.995-.75-5.328s.254-4.113.761-5.34c.507-1.226 1.253-2.065 2.237-2.517.985-.451 2.294-.677 3.93-.677 1.65 0 2.964.226 3.94.677.977.452 1.715 1.29 2.215 2.518.5 1.226.75 3.006.75 5.339 0 2.333-.25 4.109-.75 5.328-.5 1.219-1.238 2.047-2.215 2.483-.976.437-2.29.655-3.94.655zm0-3.003c.954 0 1.677-.139 2.169-.417.492-.279.844-.806 1.056-1.58.212-.776.318-1.93.318-3.466 0-1.596-.106-2.78-.318-3.556-.212-.775-.564-1.298-1.056-1.569-.492-.27-1.215-.406-2.17-.406-.938 0-1.654.135-2.146.406-.492.27-.851.798-1.078 1.58-.228.783-.341 1.965-.341 3.545 0 1.55.106 2.709.318 3.477.212.767.564 1.29 1.056 1.569.492.278 1.223.417 2.192.417zM107.979 18c-.863 0-1.787-.053-2.77-.158-.985-.105-1.818-.24-2.5-.406v-2.642c1.348.136 3.052.203 5.111.203.924 0 1.62-.124 2.09-.372.47-.249.704-.689.704-1.32v-.61c0-.497-.148-.877-.443-1.14-.295-.264-.715-.396-1.26-.396h-1.432c-1.665 0-2.91-.36-3.736-1.083-.825-.723-1.238-1.904-1.238-3.545v-.813c0-3.13 1.81-4.695 5.429-4.695.848 0 1.726.056 2.634.169a30.82 30.82 0 0 1 2.453.395v2.641c-2.074-.135-3.641-.203-4.701-.203-.863 0-1.514.132-1.953.395-.44.264-.66.75-.66 1.456v.452c0 .572.164.99.49 1.253.325.263.82.395 1.487.395h1.658c1.454 0 2.563.395 3.327 1.185.765.79 1.147 1.825 1.147 3.105v.948c0 1.264-.234 2.246-.704 2.946-.47.7-1.128 1.182-1.976 1.445-.848.263-1.9.395-3.157.395zm18.375-16.842h4.247l5.27 16.707h-3.498l-1.068-3.5h-5.723l-1.045 3.5h-3.452l5.269-16.707zm4.156 10.205l-2.066-7.338-2.067 7.338h4.133zm7.314-10.205h2.703l7.04 11.017V1.158h3.362v16.707h-2.703l-7.018-11.018v11.018h-3.384V1.158zm20.6 16.82c-1.332 0-2.377-.34-3.134-1.017-.757-.677-1.283-1.629-1.578-2.855-.296-1.227-.443-2.758-.443-4.595 0-1.926.17-3.499.51-4.718.342-1.22.962-2.156 1.863-2.81.901-.656 2.177-.983 3.827-.983 1.075 0 2.045.064 2.908.192a30.57 30.57 0 0 1 2.77.553v2.574a44.404 44.404 0 0 0-2.26-.215 38.04 38.04 0 0 0-2.804-.101c-.97 0-1.696.169-2.18.508-.485.338-.818.895-1 1.67-.182.775-.273 1.893-.273 3.353 0 1.46.091 2.57.273 3.33.182.76.477 1.29.886 1.592.408.3.991.451 1.749.451.575 0 1.143-.045 1.703-.135a9.45 9.45 0 0 0 1.454-.34v-3.25h-3.021V8.54c.454-.06 1.048-.113 1.783-.159.7-.044 1.4-.066 2.1-.067.94 0 1.727.022 2.363.067v9.483h-2.521l-.455-1.13c-.56.332-1.237.622-2.032.87a8.292 8.292 0 0 1-2.487.372l-.001.002zm14.491 0c-1.09 0-2.044-.241-2.861-.723-.818-.482-1.227-1.467-1.227-2.958V4.973c0-1.354.375-2.329 1.124-2.923.75-.595 1.655-.892 2.715-.892 2.316 0 4.739.098 7.268.294V4.25h-6.269c-.984 0-1.476.459-1.476 1.377v2.416l6.655.18v2.642l-6.655.18v2.303c0 .994.469 1.49 1.408 1.49h6.337v2.8c-2.014.226-4.354.338-7.019.338v.002zm13.447-.113c-1.348 0-2.347-.309-2.999-.926-.65-.617-.976-1.626-.976-3.025V1.158h3.361v12.214c0 .978.5 1.467 1.5 1.467h5.314v3.026h-6.2zm12.264.112c-1.09 0-2.044-.24-2.861-.722-.818-.482-1.227-1.467-1.227-2.958V4.973c0-1.354.375-2.329 1.124-2.923.75-.595 1.655-.892 2.715-.892 2.316 0 4.74.098 7.268.294V4.25h-6.269c-.984 0-1.476.459-1.476 1.377v2.416l6.655.18v2.642l-6.655.18v2.303c0 .994.47 1.49 1.408 1.49h6.337v2.8c-2.014.226-4.354.338-7.019.338v.001zm14.537.023c-.863 0-1.787-.053-2.771-.158-.984-.105-1.817-.24-2.499-.406v-2.642c1.348.136 3.051.203 5.11.203.924 0 1.621-.124 2.09-.372.47-.249.704-.689.704-1.32v-.61c0-.497-.147-.877-.442-1.14-.296-.264-.716-.396-1.261-.396h-1.43c-1.667 0-2.912-.36-3.737-1.083-.825-.723-1.238-1.904-1.238-3.545v-.813c0-3.13 1.81-4.695 5.428-4.695.848 0 1.727.056 2.635.169.909.113 1.726.244 2.453.395v2.641c-2.074-.135-3.642-.203-4.702-.203-.863 0-1.514.132-1.953.395-.439.264-.659.75-.659 1.456v.452c0 .572.163.99.489 1.253.325.263.821.395 1.488.395h1.658c1.453 0 2.562.395 3.327 1.185.765.79 1.147 1.825 1.147 3.105v.948c0 1.264-.235 2.246-.704 2.946-.47.7-1.128 1.182-1.976 1.445-.848.263-1.9.395-3.157.395z"/><path fill="#EDEDEE" d="M54.43 24.365H42.85v3.474H4.631c-.64 0-1.158.519-1.158 1.158v2.317c0 .64.519 1.158 1.158 1.158H54.43v-8.107z"/><path fill="#F26430" d="M44.007.045H1.158C.518.045 0 .564 0 1.203v25.478c0 .64.519 1.158 1.158 1.158h42.85c.639 0 1.157-.518 1.157-1.158V1.203c0-.64-.518-1.158-1.158-1.158z"/><path fill="#FFF" d="M15.148 19c-1.077 0-1.87-.25-2.38-.748-.51-.499-.765-1.298-.765-2.397V6.386h2.941v8.976c0 .669.329 1.003.986 1.003h3.825V19h-4.607zm8.976-12.614h3.672L31.638 19h-3.043l-.646-2.295h-4.012L23.308 19h-3.026l3.842-12.614zm3.145 7.684l-1.326-5.168-1.326 5.168h2.652z"/><path fill="#F26430" d="M58.63 5.836h-9.99c-.64 0-1.159.518-1.159 1.158v17.371c0 .64.519 1.158 1.159 1.158h5.21v5.79h12.16v-8.272c0-1.421-.26-2.83-.771-4.157L60.79 7.32a2.316 2.316 0 0 0-2.161-1.484h.001z"/><circle cx="13.318" cy="31.892" r="5.308" fill="#EDEDEE"/><path fill="#EDEDEE" d="M13.318 38.262a6.376 6.376 0 0 1-6.37-6.37 6.376 6.376 0 0 1 6.37-6.369 6.376 6.376 0 0 1 6.37 6.37 6.376 6.376 0 0 1-6.37 6.369z"/><circle cx="53.851" cy="31.892" r="5.308" fill="#EDEDEE"/><path fill="#EDEDEE" d="M53.85 38.262a6.376 6.376 0 0 1-6.369-6.37 6.376 6.376 0 0 1 6.37-6.369 6.376 6.376 0 0 1 6.37 6.37 6.377 6.377 0 0 1-6.37 6.369h-.001zm11.003-15.055h1.158v3.474h-1.158c-.64 0-1.158-.518-1.158-1.158v-1.158c0-.64.518-1.158 1.158-1.158zM57.286 8.152H50.82c-.565 0-1.022.518-1.022 1.158v5.79c0 .64.457 1.159 1.022 1.159h9.548c.519 0 .876-.59.69-1.138l-1.863-5.485c-.304-.894-1.062-1.484-1.909-1.484z"/></g></svg>